# xmcd
#
# Track frame offsets:
#	150
#	13367
#	27890
#	41767
#	57180
#	74519
#	89189
#	108035
#	129962
#	150962
#	167652
#	189858
#	206484
#	222515
#	242584
#	258781
#
# Disc length: 3689 seconds
#
# Revision: 0
# Processed by: cddbd v1.4PL0 Copyright (c) Steve Scherf et al.
# Submitted via: dBpowerAMP V4.0
#
DISCID=d60e6710
DTITLE=Kelly McGuire - Club Blonde
DYEAR=2002
DGENRE=Country
TTITLE0=Club Blonde
TTITLE1=Wasted On The Young W/ Wayne Toups
TTITLE2=It's Friday Night
TTITLE3=Full Moon On Texas
TTITLE4=I Cried For Mama
TTITLE5=In The Morning Light
TTITLE6=That First Guitar
TTITLE7=If I'm Dreamin'
TTITLE8=The Fairytale aka Princess and the Poor Boy
TTITLE9=No Fear
TTITLE10=Heart Of Stone
TTITLE11=Sometimes You Will Still Cry W/ Lisa Morales
TTITLE12=Can I Turn You On Tonight
TTITLE13=Talk To Me Tonight
TTITLE14=We Held On
TTITLE15=Club Blonde (Extended Ending)
EXTD=Redfish Island Records
EXTT0=
EXTT1=
EXTT2=
EXTT3=
EXTT4=
EXTT5=
EXTT6=
EXTT7=
EXTT8=
EXTT9=
EXTT10=
EXTT11=
EXTT12=
EXTT13=
EXTT14=
EXTT15=
PLAYORDER=
